# xmcd
#
# Track frame offsets: 
#        150
#        17705
#        34490
#        47604
#        62756
#        77871
#        89244
#        103015
#        117148
#        133255
#        143638
#        157295
#        173920
#        187709
#
# Disc length: 2821 seconds
#
# Revision: 0
# Processed by: cddbd v1.5.2PL0 Copyright (c) Steve Scherf et al.
# Submitted via: ExactAudioCopy v1.3
#
DISCID=c50b030e
DTITLE=Leon Everette - 3 Classic Albums On 2 CDs Disc 2
DYEAR=2017
DGENRE=Country
TTITLE0=The Lady Shes Right
TTITLE1=I Wanna Know Your Name
TTITLE2=Anita Youre Dreaming
TTITLE3=In A Letter Of Goodbye
TTITLE4=No Mans Land
TTITLE5=This Man And Woman Thing
TTITLE6=I Coulda Had You 16bitmstd
TTITLE7=Shot In The Dark
TTITLE8=I Want To Be In Pictures
TTITLE9=Soul Searchin
TTITLE10=The Rock Im Leaning On
TTITLE11=My Lady Loves Me
TTITLE12=Just Give Me What You Think Is Fair
TTITLE13=Somebody Killed Dewey Jones Daughter
EXTD=
EXTT0=
EXTT1=
EXTT2=
EXTT3=
EXTT4=
EXTT5=
EXTT6=
EXTT7=
EXTT8=
EXTT9=
EXTT10=
EXTT11=
EXTT12=
EXTT13=
PLAYORDER=
